<svg
												width="12"
												height="12"
												viewBox="0 0 15 15"
												fill="none"
												xmlns="http://www.w3.org/2000/svg"
											>
												<path
													d="M6.7623 8.01288L5.74356 6.96881C5.61475 6.83448 5.45386 6.76732 5.26089 6.76732C5.06792 6.76732 4.90094 6.84059 4.75995 6.98712C4.63115 7.12145 4.56674 7.29241 4.56674 7.5C4.56674 7.70759 4.63115 7.87855 4.75995 8.01288L6.27049 9.58814C6.41101 9.73468 6.57494 9.80795 6.7623 9.80795C6.94965 9.80795 7.11358 9.73468 7.2541 9.58814L10.24 6.47425C10.3806 6.32771 10.4478 6.15675 10.4417 5.96137C10.4356 5.76599 10.3684 5.59503 10.24 5.44849C10.0995 5.30195 9.93279 5.22576 9.73981 5.21989C9.54684 5.21403 9.37986 5.28413 9.23888 5.43017L6.7623 8.01288ZM4.79508 14.6436L3.77635 12.8486L1.84426 12.409C1.66862 12.3723 1.5281 12.2778 1.42272 12.1254C1.31733 11.973 1.27635 11.805 1.29977 11.6213L1.49297 9.55151L0.175644 7.97624C0.058548 7.84192 0 7.68317 0 7.5C0 7.31683 0.058548 7.15808 0.175644 7.02376L1.49297 5.44849L1.29977 3.37866C1.27635 3.19549 1.31733 3.02747 1.42272 2.87458C1.5281 2.72169 1.66862 2.62718 1.84426 2.59103L3.77635 2.15142L4.79508 0.356353C4.88876 0.197605 5.01756 0.0906333 5.1815 0.0354379C5.34543 -0.0197574 5.50937 -0.0104768 5.6733 0.0632798L7.5 0.86923L9.3267 0.0632798C9.49063 -0.00998835 9.65457 -0.019269 9.8185 0.0354379C9.98244 0.0901448 10.1112 0.197116 10.2049 0.356353L11.2237 2.15142L13.1557 2.59103C13.3314 2.62767 13.4719 2.72243 13.5773 2.87531C13.6827 3.0282 13.7237 3.19598 13.7002 3.37866L13.507 5.44849L14.8244 7.02376C14.9415 7.15808 15 7.31683 15 7.5C15 7.68317 14.9415 7.84192 14.8244 7.97624L13.507 9.55151L13.7002 11.6213C13.7237 11.8045 13.6827 11.9725 13.5773 12.1254C13.4719 12.2783 13.3314 12.3728 13.1557 12.409L11.2237 12.8486L10.2049 14.6436C10.1112 14.8024 9.98244 14.9094 9.8185 14.9646C9.65457 15.0198 9.49063 15.0105 9.3267 14.9367L7.5 14.1308L5.6733 14.9367C5.50937 15.01 5.34543 15.0193 5.1815 14.9646C5.01756 14.9099 4.88876 14.8029 4.79508 14.6436Z"
													fill="#BCB1E7"
												/>
											</svg>