<svg
												width="12"
												height="12"
												viewBox="0 0 12 14"
												fill="none"
												xmlns="http://www.w3.org/2000/svg"
											>
												<path
													d="M4.9002 9.21769L4.8966 9.20953C4.82417 9.19288 4.75215 9.1746 4.6806 9.15469L4.6752 9.15294C3.99077 8.96165 3.3587 8.6247 2.8248 8.1665C2.23763 7.6629 1.78609 7.02729 1.50954 6.3151C1.233 5.60291 1.13984 4.83576 1.23821 4.08054C1.33657 3.32532 1.62346 2.60495 2.07386 1.98226C2.52427 1.35957 3.12451 0.853453 3.82225 0.508045C4.51999 0.162637 5.29405 -0.0115756 6.07693 0.000596737C6.85981 0.0127691 7.62775 0.210957 8.31377 0.57788C8.9998 0.944802 9.58309 1.46932 10.0128 2.1057C10.4425 2.74207 10.7055 3.47099 10.779 4.22888C10.8024 4.4698 10.599 4.66639 10.35 4.66639C10.1016 4.66639 9.903 4.4698 9.8742 4.22946C9.79488 3.56636 9.53691 2.93538 9.12636 2.40029C8.71581 1.8652 8.16723 1.44497 7.53609 1.18209C6.90495 0.919206 6.2136 0.822987 5.53195 0.903156C4.8503 0.983326 4.2025 1.23704 3.65403 1.63866C3.10556 2.04028 2.67587 2.57556 2.4084 3.19039C2.14092 3.80522 2.04514 4.47782 2.13073 5.14018C2.21633 5.80254 2.48026 6.43119 2.89586 6.96258C3.31146 7.49398 3.86399 7.90927 4.4976 8.1665L4.5216 8.17641C4.6416 8.22425 4.7648 8.26644 4.8912 8.303C4.9974 8.05351 5.18932 7.84755 5.43423 7.72025C5.67915 7.59294 5.9619 7.55217 6.23428 7.60489C6.50666 7.6576 6.7518 7.80054 6.9279 8.00933C7.104 8.21812 7.20017 8.47983 7.2 8.74985C7.20027 9.01798 7.10553 9.27801 6.93174 9.48621C6.75795 9.6944 6.5157 9.83803 6.24576 9.89294C5.97582 9.94786 5.69467 9.9107 5.4496 9.78771C5.20454 9.66473 5.01052 9.46344 4.9002 9.21769ZM4.3086 9.95971C3.24272 9.63742 2.29764 9.01795 1.5906 8.17816C1.15243 8.22806 0.748362 8.43267 0.455136 8.75314C0.16191 9.07361 -5.42963e-05 9.48762 1.3654e-08 9.91655V10.3336C1.3654e-08 12.5025 2.526 14 6 14C9.474 14 12 12.4203 12 10.3336V9.91655C12 9.4524 11.8104 9.00727 11.4728 8.67907C11.1352 8.35088 10.6774 8.1665 10.2 8.1665H8.013C8.15453 8.62736 8.12418 9.12201 7.92728 9.56325C7.73039 10.0045 7.3796 10.364 6.93676 10.5783C6.49392 10.7927 5.98745 10.8482 5.50664 10.735C5.02583 10.6219 4.60155 10.3473 4.3086 9.95971ZM9 4.66639C9 3.78437 8.598 2.99393 7.9614 2.459C7.64199 2.1911 7.26806 1.99171 6.86402 1.87384C6.45997 1.75596 6.03491 1.72226 5.61656 1.77493C5.19822 1.8276 4.796 1.96545 4.43616 2.1795C4.07633 2.39354 3.76697 2.67895 3.52828 3.01711C3.28958 3.35527 3.12692 3.73857 3.05092 4.14199C2.97491 4.54541 2.98727 4.95988 3.08717 5.35835C3.18708 5.75681 3.3723 6.13031 3.63074 6.45446C3.88918 6.77861 4.21502 7.04613 4.587 7.23955C4.97358 6.89764 5.47739 6.70815 6 6.70812C6.52281 6.70801 7.02687 6.8975 7.4136 7.23955C7.89295 6.99058 8.29374 6.61968 8.57315 6.16647C8.85256 5.71327 9.00009 5.19478 9 4.66639Z"
													fill="#BCB1E7"
												/>
											</svg>